<svg width="1999.9999" height="2000.0001" viewBox="0 0 529.16662 529.16669" version="1.1" id="svg1" xml:space="preserve" xmlns="http://www.w3.org/2000/svg"><defs id="defs1"></defs><g id="layer1"><path style="fill:#ffffff;fill-opacity:1;stroke-width:1.15491" d="m 52.868932,346.28047 c -2.563499,-1.02558 -2.736601,-1.17954 -2.382083,-2.11877 l 0.333814,-0.88437 0.93102,0.57464 c 2.360759,1.45711 6.005244,1.53204 7.385425,0.15186 1.566074,-1.56607 0.486024,-3.09446 -2.798914,-3.96077 -4.474988,-1.18015 -5.743252,-2.19228 -5.743252,-4.58336 0,-1.65893 0.676966,-2.71589 2.255178,-3.52103 1.884867,-0.96158 6.212425,-0.80239 7.911648,0.29105 0.358545,0.23071 0.373265,0.4322 0.07879,1.0785 -0.361197,0.79274 -0.364692,0.79343 -1.357496,0.26409 -1.49446,-0.79678 -4.813382,-0.74958 -5.936674,0.0844 -0.502519,0.37312 -0.905396,0.99328 -0.963432,1.48307 -0.15859,1.33843 0.891184,2.16411 3.718896,2.92505 4.270648,1.14924 5.393865,2.02452 5.393865,4.20324 0,2.89045 -1.975347,4.35674 -5.825073,4.32391 -1.249251,-0.0104 -2.60002,-0.15085 -3.001712,-0.31156 z m 12.238491,0.0706 c 0.05601,-0.14321 1.613841,-3.58664 3.46184,-7.65208 l 3.359999,-7.39172 1.060628,0.0903 1.060627,0.0903 2.510656,5.49946 c 1.380872,3.02471 2.92402,6.42751 3.429236,7.56177 l 0.918572,2.0623 h -1.048869 c -0.99535,0 -1.095007,-0.10174 -1.953385,-1.99489 l -0.904527,-1.99489 -4.063313,0.0854 -4.063311,0.0854 -0.894654,1.90953 c -0.840218,1.79335 -0.957957,1.90954 -1.934997,1.90954 -0.572189,0 -0.994515,-0.11716 -0.938502,-0.26037 z m 10.836727,-6.23206 c -1.451832,-3.39186 -2.734891,-6.21766 -2.910071,-6.40909 -0.156682,-0.17123 -2.213348,4.18822 -3.311914,7.02014 -0.113089,0.29152 0.656036,0.38191 3.249423,0.38191 h 3.39757 z m 9.582587,-1.14572 v -7.63814 h 5.346703 5.346703 v 0.91657 0.91658 h -4.277358 -4.277369 v 2.74974 2.74973 h 3.819077 3.819076 v 0.76381 c 0,0.4201 -0.171862,0.77181 -0.381906,0.78157 -0.210056,0.009 -1.928635,0.0232 -3.819077,0.0298 l -3.43717,0.012 v 3.17821 3.17823 h -1.069334 -1.069345 z m 16.192883,0 v -7.63814 h 5.3467 5.3467 v 0.91657 0.91658 h -4.44298 -4.44297 l 0.0893,2.36783 0.0893,2.36783 3.89545,0.0855 3.89545,0.0855 v 0.74555 0.74555 l -3.89545,0.0855 -3.89545,0.0855 -0.0887,2.5206 -0.0887,2.52058 h 4.59524 4.59525 v 0.91658 0.91658 h -5.49947 -5.49946 z m 25.62826,6.78489 c -6.58993,-3.44262 -5.11802,-13.04214 2.20308,-14.368 5.21697,-0.94479 9.73492,2.57451 9.73492,7.58311 0,4.46618 -3.36516,7.62865 -8.12451,7.63516 -1.7965,0.002 -2.4676,-0.14717 -3.81349,-0.85027 z m 6.69327,-1.55843 c 2.03697,-1.03963 3.11947,-2.84111 3.11947,-5.19139 0,-1.89705 -0.30885,-2.72487 -1.53959,-4.12662 -2.69421,-3.06853 -8.10633,-2.25025 -9.80163,1.48195 -1.013,2.2301 -0.46772,5.54442 1.13933,6.92511 1.8368,1.57807 4.98255,1.98268 7.08242,0.91095 z m 11.75534,-4.67753 c -1.7129,-3.91475 -3.20277,-7.35834 -3.31084,-7.6524 -0.16295,-0.44349 -0.0177,-0.53467 0.85168,-0.53467 h 1.04816 l 2.72723,6.25743 c 1.49998,3.44158 2.79597,6.25603 2.87999,6.2543 0.084,-10e-4 1.38106,-2.81755 2.8823,-6.25743 l 2.72954,-6.2543 h 1.00356 c 0.79096,0 0.96416,0.10267 0.81753,0.48482 -0.10233,0.26665 -1.58728,3.66945 -3.29989,7.56177 l -3.11384,7.07695 -1.05052,0.0907 -1.05053,0.0907 z m 16.11174,-0.54893 v -7.63814 h 5.3467 5.3467 v 0.91657 0.91658 h -4.27737 -4.27736 v 2.44421 2.44421 h 3.81908 3.81907 v 0.76381 0.76381 h -3.81907 -3.81908 v 2.59698 2.59697 h 4.43013 4.43012 v 0.91657 0.91659 h -5.49946 -5.49946 z m 16.80392,-0.0293 v -7.66744 l 4.20098,0.10567 c 3.8114,0.0959 4.32567,0.17652 5.54546,0.8695 1.65251,0.9388 2.47459,2.38862 2.47459,4.36415 0,1.79652 -0.55346,2.9302 -2.02115,4.13999 l -1.11733,0.921 1.72888,2.46728 1.72889,2.4673 -1.15261,-0.0104 c -1.08938,-0.009 -1.23639,-0.13453 -2.68023,-2.28205 -0.8402,-1.24969 -1.66511,-2.31511 -1.83315,-2.3676 -0.16804,-0.0524 -1.30231,-0.0455 -2.52059,0.0157 l -2.21506,0.1111 v 2.26638 2.26638 h -1.06934 -1.06934 z m 8.02986,0.83528 c 1.94515,-0.82328 2.73816,-2.66552 1.95465,-4.54075 -0.63848,-1.52807 -2.00515,-2.07023 -5.21865,-2.07023 h -2.62718 v 3.51356 3.51354 h 2.45402 c 1.38591,0 2.88193,-0.18111 3.43716,-0.41612 z m 10.1275,6.42821 c -0.0852,-0.22219 -0.11538,-3.62498 -0.0667,-7.56177 l 0.0882,-7.1578 0.99296,-0.0958 0.99296,-0.0957 v 6.74094 6.74092 h 4.12461 4.1246 v 0.91658 0.91658 h -5.05077 c -3.90582,0 -5.0859,-0.0916 -5.20578,-0.40396 z m 13.11295,-0.0444 c 0.0946,-0.24659 1.64194,-3.69085 3.43847,-7.65392 l 3.26643,-7.20557 1.05449,0.0922 1.05451,0.0922 3.45396,7.56177 3.45398,7.56177 h -1.05908 c -1.00744,0 -1.10299,-0.0968 -1.95954,-1.98592 l -0.90047,-1.98592 h -4.08819 -4.08821 l -0.86515,1.98592 c -0.82015,1.8826 -0.91896,1.98592 -1.8992,1.98592 -0.78343,0 -0.99235,-0.10868 -0.862,-0.44834 z m 10.89227,-5.3436 c 0,-0.33708 -2.75881,-6.76826 -3.0561,-7.12418 -0.1653,-0.19793 -3.35995,6.68095 -3.35995,7.23483 0,0.10002 1.44361,0.18181 3.20802,0.18181 1.83949,0 3.20803,-0.12477 3.20803,-0.29246 z m 11.91551,3.01606 v -2.77587 l -2.9025,-4.72273 c -1.59637,-2.59749 -2.9025,-4.78552 -2.9025,-4.86227 0,-0.0768 0.45164,-0.13955 1.00365,-0.13955 0.95879,0 1.11192,0.1775 3.42648,3.97184 1.33255,2.1845 2.49638,3.97128 2.58628,3.9706 0.0898,-6.8e-4 1.24391,-1.788 2.56447,-3.97184 2.18982,-3.62133 2.47873,-3.9706 3.2844,-3.9706 0.48587,0 0.88339,0.0868 0.88339,0.193 0,0.10613 -1.30612,2.34259 -2.9025,4.96984 l -2.90249,4.77684 v 2.66832 2.66829 h -1.06935 -1.06933 z m 13.29038,2.28312 c -1.97631,-0.71883 -2.37349,-1.13161 -1.96065,-2.03767 l 0.35015,-0.76851 0.95802,0.56035 c 2.26878,1.32704 5.83951,1.50272 7.19509,0.35401 0.33615,-0.28486 0.69896,-0.8891 0.80624,-1.34275 0.30696,-1.29801 -0.81318,-2.16222 -3.84684,-2.96792 -4.23496,-1.12476 -5.81536,-2.61533 -5.35797,-5.05342 0.44228,-2.3576 2.39007,-3.58874 5.67775,-3.58874 1.51416,0 4.88569,0.78332 4.88569,1.13511 0,0.0596 -0.13576,0.4654 -0.3017,0.90185 -0.30145,0.79289 -0.3025,0.7931 -1.29849,0.2621 -1.49587,-0.79751 -4.81422,-0.75074 -5.93808,0.0837 -1.12961,0.8387 -1.30927,2.27016 -0.39214,3.12459 0.36236,0.3376 1.77937,0.91535 3.1489,1.28389 4.40197,1.18457 5.54861,2.19029 5.31374,4.66068 -0.15702,1.65156 -1.01003,2.79561 -2.58472,3.46657 -1.27256,0.54224 -5.07728,0.50003 -6.65499,-0.0738 z m 20.92851,-7.1454 v -7.63814 h 5.34671 5.34671 v 0.91657 0.91658 h -4.44202 -4.44203 l 0.0882,2.67335 0.0882,2.67336 3.7427,0.0858 c 3.73988,0.0857 3.74269,0.0864 3.74269,0.8308 0,0.74444 -0.002,0.74507 -3.74269,0.83078 l -3.7427,0.0858 -0.0871,3.13165 -0.0871,3.13164 h -0.90589 -0.90589 z m 19.09538,6.91524 c -3.01273,-1.41395 -4.4167,-3.61215 -4.4167,-6.91524 0,-4.59487 3.18259,-7.69206 7.90416,-7.69206 3.31122,0 5.56757,1.22224 7.05993,3.82426 0.76605,1.33567 0.90454,1.90541 0.90696,3.73143 0.005,3.51017 -1.62272,6.03646 -4.72308,7.33187 -1.68149,0.70257 -4.92484,0.56752 -6.73127,-0.28026 z m 6.59284,-1.82004 c 1.83226,-0.96892 3.14496,-3.38731 2.95387,-5.44188 -0.19302,-2.07532 -1.12513,-3.6365 -2.78767,-4.66904 -3.70483,-2.30093 -8.41712,-0.18835 -9.20537,4.12688 -0.41954,2.29681 1.20527,5.33039 3.35723,6.26807 1.51605,0.66058 4.14407,0.52921 5.68194,-0.28403 z m 10.66937,-5.1245 v -7.66744 l 4.20098,0.11353 c 5.12009,0.13842 6.32176,0.60156 7.41376,2.85732 1.22291,2.52622 0.50479,5.3074 -1.70747,6.61266 l -1.0467,0.61757 1.68024,2.38426 c 0.92412,1.31134 1.68023,2.46644 1.68023,2.56688 0,0.10048 -0.44683,0.17908 -0.99296,0.17475 -0.85119,-0.007 -1.14563,-0.23375 -2.0623,-1.5899 -2.17133,-3.21234 -2.07566,-3.15048 -4.6974,-3.03736 l -2.32969,0.10048 v 2.2673 2.26731 h -1.06934 -1.06935 z m 8.06633,0.82539 c 1.40029,-0.58508 2.01603,-1.57803 2.01603,-3.25111 0,-1.16582 -0.15795,-1.55392 -0.93597,-2.29985 -0.88685,-0.85026 -1.09534,-0.90287 -3.97184,-1.00237 l -3.03586,-0.10498 v 3.54219 3.54217 h 2.45402 c 1.40756,0 2.8888,-0.18167 3.47362,-0.42601 z m 16.83404,6.29032 c -2.25949,-0.95696 -2.37345,-1.07268 -1.9569,-1.98692 l 0.37075,-0.81371 0.94584,0.58379 c 2.18833,1.35071 5.81344,1.54451 7.18292,0.38401 0.33615,-0.28486 0.69897,-0.8891 0.80625,-1.34275 0.30644,-1.29588 -0.81345,-2.1614 -3.84683,-2.97306 -3.19783,-0.85567 -4.51076,-1.63466 -5.08945,-3.01966 -0.8573,-2.05181 0.33986,-4.5365 2.53477,-5.26088 1.36123,-0.44925 4.19353,-0.45929 5.78087,-0.0204 1.85349,0.51237 2.05408,0.71064 1.6894,1.66981 l -0.31353,0.82467 -0.99678,-0.53355 c -0.67456,-0.36107 -1.70463,-0.53709 -3.18641,-0.54449 -1.90504,-0.009 -2.29218,0.0854 -2.97888,0.72974 -0.9696,0.90993 -1.03304,2.21641 -0.14769,3.04126 0.35288,0.32874 1.76211,0.89925 3.13164,1.26779 1.36954,0.36854 2.85602,0.85835 3.3033,1.08847 3.02255,1.55507 2.69438,5.68118 -0.56001,7.04095 -1.39124,0.5813 -5.15804,0.50505 -6.66926,-0.135 z m 17.87326,-6.16982 v -6.72158 h -2.74973 -2.74973 v -0.91658 -0.91657 h 6.26328 6.26328 v 0.91657 0.91658 h -2.59697 -2.59697 v 6.72158 6.72156 h -0.91658 -0.91658 z m 11.91551,-0.91659 v -7.63814 h 3.61189 c 2.494,0 4.05141,0.14976 5.032,0.48387 4.37739,1.49153 4.7779,7.01269 0.6852,9.44572 -0.45255,0.26903 -0.31053,0.58893 1.189,2.6783 0.93663,1.30503 1.70295,2.43929 1.70295,2.52059 0,0.0813 -0.45596,0.14781 -1.01325,0.14781 -0.91449,0 -1.16826,-0.22198 -2.60328,-2.27731 -0.87451,-1.25252 -1.69769,-2.34385 -1.82928,-2.42518 -0.13159,-0.0813 -1.29739,-0.0678 -2.59067,0.0299 l -2.3514,0.17785 v 2.24734 2.24735 h -0.91658 -0.91658 z m 7.73042,0.89613 c 2.32831,-0.64655 3.12778,-3.68392 1.461,-5.55058 -0.88524,-0.9914 -0.91159,-0.99844 -4.12459,-1.10197 l -3.23367,-0.10417 v 3.33767 c 0,1.83572 0.0917,3.42934 0.20368,3.54137 0.32169,0.32169 4.41105,0.23385 5.69358,-0.1223 z m 10.29561,-0.89613 v -7.63814 h 5.3467 5.34671 v 0.91657 0.91658 h -4.27736 -4.27737 v 2.44421 2.44421 h 3.81908 3.81907 v 0.76381 0.76381 h -3.81907 -3.81908 v 2.59697 2.59698 h 4.43013 4.43013 v 0.91657 0.91658 h -5.49946 -5.49948 z m 14.77191,7.18982 c 0.0946,-0.24659 1.64194,-3.69085 3.43848,-7.65392 l 3.26642,-7.20557 1.04824,0.0922 1.04822,0.0922 3.4604,7.56177 3.46039,7.56177 h -1.05924 c -1.0081,0 -1.10288,-0.0963 -1.96357,-1.9945 l -0.90435,-1.9945 -4.15254,0.085 -4.15252,0.085 -0.78288,1.90954 c -0.74582,1.81913 -0.83251,1.90954 -1.83099,1.90954 -0.79578,0 -1.00668,-0.10799 -0.87606,-0.44834 z m 10.89227,-5.35547 c 0,-0.40162 -3.11175,-7.37917 -3.23561,-7.2553 -0.18479,0.18478 -3.18044,7.07637 -3.18044,7.31668 0,0.13363 1.44362,0.24295 3.20803,0.24295 1.9266,0 3.20802,-0.12156 3.20802,-0.30433 z m 9.4713,-1.83435 v -7.63814 l 0.8402,0.0154 c 0.75966,0.0139 1.13309,0.51429 3.89545,5.21985 1.6804,2.86246 3.14396,5.26077 3.25237,5.32957 0.10845,0.0688 1.59739,-2.28013 3.30884,-5.21985 2.90636,-4.99218 3.17061,-5.34493 4.00388,-5.34493 h 0.89214 v 7.63814 7.63815 h -1.06245 -1.06245 l -0.0833,-5.53018 -0.0833,-5.53017 -2.74705,4.62181 c -1.76616,2.97152 -2.90506,4.59138 -3.18958,4.53658 -0.24339,-0.0469 -1.6882,-2.14724 -3.2107,-4.66748 l -2.76818,-4.58225 -0.0833,5.57584 -0.0833,5.57585 h -0.90969 -0.90969 z m 22.91445,0 v -7.63814 h 5.3467 5.34671 v 0.91657 0.91658 h -4.29022 -4.29021 l 0.0893,2.36783 0.0893,2.36783 3.7427,0.0858 c 3.73988,0.0857 3.7427,0.0864 3.7427,0.83079 0,0.74445 -0.002,0.74507 -3.7427,0.8308 l -3.7427,0.0858 -0.0887,2.5206 -0.0887,2.52058 h 4.44248 4.44249 v 0.91658 0.91658 h -5.49947 -5.49947 z m 17.10945,-0.0346 v -7.67282 l 4.20219,0.11537 c 3.50336,0.0962 4.3745,0.2163 5.23838,0.7221 2.88091,1.68679 3.54214,5.70164 1.31561,7.98803 -0.46484,0.47733 -1.10312,1.01225 -1.41838,1.1887 -0.5319,0.29769 -0.46318,0.47388 0.95324,2.4442 2.16589,3.01287 2.12674,2.88721 0.89973,2.88721 -0.9829,0 -1.19699,-0.18542 -2.73635,-2.36979 l -1.67004,-2.36978 -2.39923,0.0358 -2.39923,0.0358 -0.0893,2.334 -0.0893,2.33398 h -0.90373 -0.90372 z m 7.94923,0.76062 c 2.60043,-1.04049 2.9115,-4.4707 0.53674,-5.91861 -0.80916,-0.49333 -1.54125,-0.61026 -3.8267,-0.61119 l -2.82611,-0.001 v 3.51355 3.51355 h 2.43802 c 1.5371,0 2.89626,-0.18334 3.67805,-0.49616 z m 10.83613,6.36046 c -2.07014,-0.87357 -2.31972,-1.19073 -1.70317,-2.16433 0.22322,-0.3525 0.50186,-0.31185 1.64054,0.23938 3.54284,1.71506 7.55251,0.81585 7.55251,-1.69372 0,-0.96974 -1.2203,-1.79124 -3.587,-2.41473 -4.15488,-1.09459 -5.60607,-2.23425 -5.66392,-4.44798 -0.0704,-2.69415 2.06891,-4.30841 5.69093,-4.2942 2.2034,0.008 4.78208,0.72388 4.78208,1.32639 0,0.16084 -0.14275,0.55917 -0.31723,0.88519 -0.29741,0.55574 -0.37478,0.563 -1.23853,0.11634 -2.15523,-1.11452 -5.57027,-0.81989 -6.53973,0.56421 -1.11958,1.59842 -0.12961,2.89277 2.84682,3.72211 4.7664,1.32809 5.85972,2.141 5.85972,4.35681 0,2.90254 -1.96754,4.3682 -5.82506,4.33921 -1.41282,-0.0104 -2.73501,-0.21273 -3.49796,-0.53468 z M 142.2018,321.43444 c -3.44249,-0.98464 -5.86902,-3.24344 -7.08769,-6.59774 -0.52755,-1.45209 -0.58392,-121.90847 -0.058,-123.85532 0.92419,-3.4209 2.57408,-5.56643 5.28647,-6.87459 l 1.97342,-0.95177 52.34057,0.0209 52.34057,0.0209 13.20841,14.41523 13.20841,14.41524 0.006,50.54286 c 0.005,36.96727 -0.0879,50.83589 -0.34229,51.63388 -0.94955,2.97817 -2.06812,4.60199 -4.09892,5.95036 -0.90989,0.60414 -1.85456,1.09841 -2.0993,1.09841 -0.24472,0 -0.52992,0.1375 -0.63378,0.30554 -0.28478,0.46077 -122.42589,0.33884 -124.04352,-0.12383 z m 97.31001,-25.68031 c 0,-0.077 -17.73579,-17.87609 -39.41285,-39.5536 L 160.68612,216.7869 v 39.34991 c 0,21.64245 0.0917,39.44157 0.20368,39.5536 0.22476,0.22474 78.62201,0.2883 78.62201,0.0638 z m 7.8027,-86.2475 c -0.11526,-0.30276 -8.18394,-0.38191 -38.9321,-0.38191 h -38.78674 l 38.85353,38.87818 38.85352,38.87817 0.0785,-38.49627 c 0.0432,-21.17294 0.0132,-38.66811 -0.0667,-38.87817 z M 55.585198,321.3575 c -0.588137,-0.0566 -2.650437,-0.25161 -4.582888,-0.43327 -11.401533,-1.07182 -24.935948,-4.96245 -34.218904,-9.83666 -2.792363,-1.46618 -7.3326225,-4.44027 -7.3326225,-4.8032 0,-0.14538 1.0758285,-2.64579 2.3907305,-5.55645 1.3149,-2.91066 3.612569,-8.00157 5.105929,-11.31314 l 2.715199,-6.02101 0.928208,0.70137 c 1.523644,1.1513 6.596374,4.04765 9.176128,5.23926 7.445334,3.43907 14.054326,5.53394 21.76835,6.9 4.584487,0.81186 14.440996,1.12067 19.031725,0.59629 9.147806,-1.04493 14.788018,-4.03205 17.185663,-9.1017 0.883635,-1.86837 0.977091,-2.33789 0.959328,-4.81976 -0.0298,-4.16759 -1.331314,-6.5112 -4.995713,-8.99575 -4.606647,-3.12342 -9.07721,-4.56924 -27.914839,-9.02791 -12.852008,-3.04194 -20.487314,-5.82561 -27.93124,-10.18316 -7.480296,-4.37884 -12.821308,-11.11511 -14.738361,-18.58855 -2.185575,-8.52026 -1.358541,-17.96412 2.270585,-25.9277 4.902859,-10.75862 16.095572,-19.15722 30.292195,-22.73016 7.483016,-1.88328 15.568256,-2.65357 24.861298,-2.36856 14.907537,0.45719 27.468263,3.43376 38.570301,9.14016 1.97317,1.01421 3.7261,2.01091 3.8954,2.2149 0.21737,0.26191 -1.05868,3.73971 -4.34232,11.83477 l -4.65014,11.46386 -3.67539,-1.91864 c -10.540093,-5.50221 -21.888138,-8.39224 -32.953155,-8.39224 -9.965188,0 -17.108322,1.99706 -21.24033,5.93834 -3.265408,3.11467 -4.679788,7.66265 -3.628979,11.6691 0.966957,3.68673 2.933704,5.70146 8.012665,8.20814 3.531518,1.74296 6.410096,2.61287 18.178792,5.49361 18.03841,4.41544 24.333689,6.36634 30.773863,9.53681 10.566744,5.20194 16.675854,12.47355 18.815984,22.39645 0.82177,3.81018 0.87805,11.83656 0.10683,15.22811 -2.2626,9.94946 -7.69817,17.83394 -16.22605,23.53641 -8.722636,5.83272 -17.630362,8.71745 -30.262559,9.80042 -3.360707,0.28812 -13.803212,0.36469 -16.345637,0.11986 z m 400.850022,0 c -0.58814,-0.0566 -2.65045,-0.25161 -4.58289,-0.43327 -11.45047,-1.07641 -25.45371,-5.09309 -34.21891,-9.81531 -3.09342,-1.66658 -7.33262,-4.48641 -7.33262,-4.87752 0,-0.17452 2.27901,-5.37082 5.06446,-11.54733 l 5.06446,-11.23002 2.21163,1.45818 c 7.95711,5.24632 18.9913,9.4593 29.66926,11.32805 4.43251,0.77573 14.69682,1.09429 19.09537,0.59263 10.77618,-1.22904 16.73743,-5.1751 18.03418,-11.93776 0.66036,-3.4438 -0.67007,-7.47914 -3.19287,-9.68436 -4.24797,-3.71322 -8.81799,-5.31375 -29.35379,-10.2804 -18.27908,-4.42084 -28.14335,-8.75963 -34.83804,-15.32348 -6.93287,-6.79737 -9.71626,-14.44932 -9.21639,-25.33718 0.90216,-19.65038 15.90843,-34.15981 39.31878,-38.01696 15.65518,-2.5794 33.64168,-1.11966 48.42585,3.93013 3.57492,1.22108 11.54761,4.9485 12.89407,6.0283 l 0.67302,0.53972 -4.59407,11.30446 c -2.52674,6.21746 -4.64862,11.35907 -4.7153,11.42583 -0.0666,0.0667 -2.08308,-0.85758 -4.48091,-2.05406 -10.92025,-5.44905 -21.24374,-7.99839 -32.37965,-7.99604 -7.36708,0.001 -12.24538,0.92168 -16.89235,3.18614 -5.68963,2.77254 -8.46996,7.25608 -8.01493,12.92481 0.33748,4.20423 2.66447,6.91638 8.32045,9.69763 3.84551,1.89097 6.78817,2.76651 20.92853,6.22693 15.11648,3.69929 20.31234,5.27466 26.08604,7.90922 9.06271,4.13535 14.85789,9.30988 18.48652,16.50666 2.24022,4.44309 3.37729,11.70546 2.8015,17.89291 -1.23377,13.25782 -8.49297,23.61617 -21.40435,30.54239 -9.289,4.98302 -20.60537,7.30904 -34.98272,7.19053 -3.19275,-0.0263 -6.28621,-0.0942 -6.87433,-0.15083 z M 299.70041,253.27322 v -66.14636 h 49.95349 49.95349 v 12.22103 12.22105 h -34.6772 -34.67718 v 17.56773 17.56775 h 30.55259 30.55259 v 12.22103 12.22104 H 360.8056 330.25301 v 24.13654 24.13656 h -15.2763 -15.2763 z" id="path1"></path></g></svg>
